<mxfile host="app.diagrams.net" agent="Mozilla/5.0 (Windows NT 10.0; Win64; x64) AppleWebKit/537.36 (KHTML, like Gecko) Chrome/130.0.0.0 Safari/537.36" version="24.8.4">
  <diagram name="Page-1" id="c7558073-3199-34d8-9f00-42111426c3f3">
    <mxGraphModel dx="1434" dy="746" grid="1" gridSize="10" guides="1" tooltips="1" connect="1" arrows="1" fold="1" page="1" pageScale="1" pageWidth="826" pageHeight="1169" background="none" math="0" shadow="0">
      <root>
        <mxCell id="0" />
        <mxCell id="1" parent="0" />
        <mxCell id="JU5B7sqHF65WMcBjjEgV-135" value="" style="rounded=0;whiteSpace=wrap;html=1;" parent="1" vertex="1">
          <mxGeometry y="80" width="820" height="480" as="geometry" />
        </mxCell>
        <mxCell id="JU5B7sqHF65WMcBjjEgV-96" value="Transmitter&lt;div&gt;Arduino Nano&lt;/div&gt;" style="rounded=0;whiteSpace=wrap;html=1;fillColor=#dae8fc;strokeColor=#6c8ebf;" parent="1" vertex="1">
          <mxGeometry x="40" y="250" width="120" height="60" as="geometry" />
        </mxCell>
        <mxCell id="JU5B7sqHF65WMcBjjEgV-97" value="Receiver STM32Nucleo" style="rounded=0;whiteSpace=wrap;html=1;fillColor=#dae8fc;strokeColor=#6c8ebf;" parent="1" vertex="1">
          <mxGeometry x="520" y="250" width="120" height="60" as="geometry" />
        </mxCell>
        <mxCell id="JU5B7sqHF65WMcBjjEgV-99" value="nRF24L01" style="rounded=0;whiteSpace=wrap;html=1;" parent="1" vertex="1">
          <mxGeometry x="200" y="250" width="80" height="60" as="geometry" />
        </mxCell>
        <mxCell id="JU5B7sqHF65WMcBjjEgV-100" value="nRF24L01" style="rounded=0;whiteSpace=wrap;html=1;" parent="1" vertex="1">
          <mxGeometry x="400" y="250" width="80" height="60" as="geometry" />
        </mxCell>
        <mxCell id="JU5B7sqHF65WMcBjjEgV-101" value="Left XY - Joystick&lt;div&gt;Y :&amp;nbsp;throttle&lt;/div&gt;&lt;div&gt;X: yaw&lt;/div&gt;" style="rounded=0;whiteSpace=wrap;html=1;fillColor=#f5f5f5;gradientColor=#b3b3b3;strokeColor=#666666;" parent="1" vertex="1">
          <mxGeometry x="40" y="150" width="120" height="60" as="geometry" />
        </mxCell>
        <mxCell id="JU5B7sqHF65WMcBjjEgV-102" value="Right XY - Joystick&lt;div&gt;Y : pitch&lt;/div&gt;&lt;div&gt;X: roll&lt;/div&gt;" style="rounded=0;whiteSpace=wrap;html=1;fillColor=#f5f5f5;gradientColor=#b3b3b3;strokeColor=#666666;" parent="1" vertex="1">
          <mxGeometry x="40" y="370" width="120" height="60" as="geometry" />
        </mxCell>
        <mxCell id="JU5B7sqHF65WMcBjjEgV-104" value="PID" style="rhombus;whiteSpace=wrap;html=1;fillColor=#d5e8d4;gradientColor=#97d077;strokeColor=#82b366;" parent="1" vertex="1">
          <mxGeometry x="540" y="340" width="80" height="80" as="geometry" />
        </mxCell>
        <mxCell id="JU5B7sqHF65WMcBjjEgV-105" value="Servo Motors" style="rounded=0;whiteSpace=wrap;html=1;fillColor=#f5f5f5;strokeColor=#666666;gradientColor=#b3b3b3;" parent="1" vertex="1">
          <mxGeometry x="535" y="450" width="90" height="60" as="geometry" />
        </mxCell>
        <mxCell id="JU5B7sqHF65WMcBjjEgV-108" value="12V BLDC Driver" style="rhombus;whiteSpace=wrap;html=1;fillColor=#dae8fc;gradientColor=#7ea6e0;strokeColor=#6c8ebf;" parent="1" vertex="1">
          <mxGeometry x="690" y="240" width="90" height="80" as="geometry" />
        </mxCell>
        <mxCell id="JU5B7sqHF65WMcBjjEgV-109" value="2200KV BLDC with&amp;nbsp;propeller" style="rounded=0;whiteSpace=wrap;html=1;fillColor=#f5f5f5;strokeColor=#666666;gradientColor=#b3b3b3;" parent="1" vertex="1">
          <mxGeometry x="695" y="360" width="90" height="60" as="geometry" />
        </mxCell>
        <mxCell id="JU5B7sqHF65WMcBjjEgV-111" value="12V PSU" style="ellipse;whiteSpace=wrap;html=1;aspect=fixed;fillColor=#f8cecc;strokeColor=#b85450;" parent="1" vertex="1">
          <mxGeometry x="695" y="120" width="80" height="80" as="geometry" />
        </mxCell>
        <mxCell id="JU5B7sqHF65WMcBjjEgV-112" value="12V to 3V3" style="rhombus;whiteSpace=wrap;html=1;" parent="1" vertex="1">
          <mxGeometry x="540" y="120" width="80" height="80" as="geometry" />
        </mxCell>
        <mxCell id="JU5B7sqHF65WMcBjjEgV-113" value="" style="endArrow=classic;html=1;rounded=0;entryX=0.5;entryY=0;entryDx=0;entryDy=0;" parent="1" target="JU5B7sqHF65WMcBjjEgV-96" edge="1">
          <mxGeometry width="50" height="50" relative="1" as="geometry">
            <mxPoint x="100" y="210" as="sourcePoint" />
            <mxPoint x="150" y="160" as="targetPoint" />
          </mxGeometry>
        </mxCell>
        <mxCell id="JU5B7sqHF65WMcBjjEgV-116" value="" style="endArrow=classic;html=1;rounded=0;entryX=0;entryY=0.5;entryDx=0;entryDy=0;" parent="1" target="JU5B7sqHF65WMcBjjEgV-99" edge="1">
          <mxGeometry width="50" height="50" relative="1" as="geometry">
            <mxPoint x="160" y="280" as="sourcePoint" />
            <mxPoint x="210" y="230" as="targetPoint" />
          </mxGeometry>
        </mxCell>
        <mxCell id="JU5B7sqHF65WMcBjjEgV-117" value="" style="endArrow=classic;html=1;rounded=0;entryX=0.5;entryY=1;entryDx=0;entryDy=0;" parent="1" target="JU5B7sqHF65WMcBjjEgV-96" edge="1">
          <mxGeometry width="50" height="50" relative="1" as="geometry">
            <mxPoint x="100" y="370" as="sourcePoint" />
            <mxPoint x="150" y="320" as="targetPoint" />
          </mxGeometry>
        </mxCell>
        <mxCell id="JU5B7sqHF65WMcBjjEgV-119" value="" style="endArrow=classic;html=1;rounded=0;entryX=0;entryY=0.5;entryDx=0;entryDy=0;" parent="1" target="JU5B7sqHF65WMcBjjEgV-97" edge="1">
          <mxGeometry width="50" height="50" relative="1" as="geometry">
            <mxPoint x="480" y="280" as="sourcePoint" />
            <mxPoint x="530" y="230" as="targetPoint" />
          </mxGeometry>
        </mxCell>
        <mxCell id="JU5B7sqHF65WMcBjjEgV-120" value="" style="endArrow=classic;html=1;rounded=0;entryX=0.5;entryY=0;entryDx=0;entryDy=0;" parent="1" source="JU5B7sqHF65WMcBjjEgV-97" target="JU5B7sqHF65WMcBjjEgV-104" edge="1">
          <mxGeometry width="50" height="50" relative="1" as="geometry">
            <mxPoint x="535" y="390" as="sourcePoint" />
            <mxPoint x="585" y="340" as="targetPoint" />
          </mxGeometry>
        </mxCell>
        <mxCell id="JU5B7sqHF65WMcBjjEgV-121" value="" style="endArrow=classic;html=1;rounded=0;entryX=0.5;entryY=0;entryDx=0;entryDy=0;" parent="1" target="JU5B7sqHF65WMcBjjEgV-97" edge="1">
          <mxGeometry width="50" height="50" relative="1" as="geometry">
            <mxPoint x="579.8" y="200" as="sourcePoint" />
            <mxPoint x="580.14" y="150" as="targetPoint" />
          </mxGeometry>
        </mxCell>
        <mxCell id="JU5B7sqHF65WMcBjjEgV-122" value="" style="endArrow=classic;html=1;rounded=0;entryX=0.5;entryY=0;entryDx=0;entryDy=0;" parent="1" edge="1">
          <mxGeometry width="50" height="50" relative="1" as="geometry">
            <mxPoint x="579.66" y="420" as="sourcePoint" />
            <mxPoint x="579.66" y="450" as="targetPoint" />
          </mxGeometry>
        </mxCell>
        <mxCell id="JU5B7sqHF65WMcBjjEgV-123" value="" style="endArrow=classic;html=1;rounded=0;entryX=0;entryY=0.5;entryDx=0;entryDy=0;" parent="1" target="JU5B7sqHF65WMcBjjEgV-108" edge="1">
          <mxGeometry width="50" height="50" relative="1" as="geometry">
            <mxPoint x="640" y="280" as="sourcePoint" />
            <mxPoint x="610" y="310" as="targetPoint" />
          </mxGeometry>
        </mxCell>
        <mxCell id="JU5B7sqHF65WMcBjjEgV-124" value="" style="endArrow=classic;html=1;rounded=0;" parent="1" edge="1">
          <mxGeometry width="50" height="50" relative="1" as="geometry">
            <mxPoint x="734.66" y="320" as="sourcePoint" />
            <mxPoint x="734" y="360" as="targetPoint" />
          </mxGeometry>
        </mxCell>
        <mxCell id="JU5B7sqHF65WMcBjjEgV-126" value="" style="endArrow=classic;html=1;rounded=0;entryX=1;entryY=0.5;entryDx=0;entryDy=0;" parent="1" target="JU5B7sqHF65WMcBjjEgV-112" edge="1">
          <mxGeometry width="50" height="50" relative="1" as="geometry">
            <mxPoint x="696" y="159.66" as="sourcePoint" />
            <mxPoint x="746" y="159.66" as="targetPoint" />
          </mxGeometry>
        </mxCell>
        <mxCell id="JU5B7sqHF65WMcBjjEgV-127" value="" style="endArrow=classic;html=1;rounded=0;entryX=0.5;entryY=0;entryDx=0;entryDy=0;" parent="1" target="JU5B7sqHF65WMcBjjEgV-108" edge="1">
          <mxGeometry width="50" height="50" relative="1" as="geometry">
            <mxPoint x="734.98" y="200" as="sourcePoint" />
            <mxPoint x="734.9300000000001" y="241.84000000000003" as="targetPoint" />
          </mxGeometry>
        </mxCell>
        <mxCell id="JU5B7sqHF65WMcBjjEgV-129" value="" style="sketch=0;pointerEvents=1;shadow=0;dashed=0;html=1;strokeColor=none;fillColor=#434445;aspect=fixed;labelPosition=center;verticalLabelPosition=bottom;verticalAlign=top;align=center;outlineConnect=0;shape=mxgraph.vvd.wi_fi;rotation=45;" parent="1" vertex="1">
          <mxGeometry x="290" y="263.5" width="33" height="33" as="geometry" />
        </mxCell>
        <mxCell id="JU5B7sqHF65WMcBjjEgV-133" value="" style="sketch=0;pointerEvents=1;shadow=0;dashed=0;html=1;strokeColor=none;fillColor=#434445;aspect=fixed;labelPosition=center;verticalLabelPosition=bottom;verticalAlign=top;align=center;outlineConnect=0;shape=mxgraph.vvd.wi_fi;rotation=-135;" parent="1" vertex="1">
          <mxGeometry x="350" y="263.5" width="33" height="33" as="geometry" />
        </mxCell>
      </root>
    </mxGraphModel>
  </diagram>
</mxfile>
